<?xml version="1.0" encoding="UTF-8"?>
<svg width="488px" height="488px" viewBox="0 0 488 488" version="1.1" xmlns="http://www.w3.org/2000/svg" xmlns:xlink="http://www.w3.org/1999/xlink">
    <!-- Generator: Sketch 64 (93537) - https://sketch.com -->
    <title>6</title>
    <desc>Created with Sketch.</desc>
    <g id="Page-1" stroke="none" stroke-width="1" fill="none" fill-rule="evenodd">
        <g id="6" transform="translate(4.000000, 3.000000)" fill-rule="nonzero" stroke="#FCFCFE">
            <g id="email" fill="#FCFCFE" stroke-width="7">
                <path d="M476.8,178.6 L432,144.624 L432,57 C432,52.581722 428.418278,49 424,49 L305.976,49 L244.8,2.6 C241.942599,0.434499371 237.993401,0.434499371 235.136,2.6 L174.024,49 L56,49 C51.581722,49 48,52.581722 48,57 L48,144.632 L3.2,178.6 C1.18555326,180.110835 0,182.481942 0,185 L0,473 C0,477.418278 3.581722,481 8,481 L472,481 C476.418278,481 480,477.418278 480,473 L480,185 C480,182.481942 478.814447,180.110835 476.8,178.6 Z M16,201.112 L184.592,329 L16,456.888 L16,201.112 Z M240,307.04 L448.216,465 L31.784,465 L240,307.04 Z M295.408,329 L464,201.112 L464,456.888 L295.408,329 Z M458.76,185 L432,205.296 L432,164.712 L458.76,185 Z M240,19.04 L279.496,49 L200.504,49 L240,19.04 Z M416,65 L416,217.432 L282.168,318.944 L244.8,290.6 C241.942599,288.434499 237.993401,288.434499 235.136,290.6 L197.8,318.928 L64,217.432 L64,65 L416,65 Z M48,205.296 L21.24,185 L48,164.704 L48,205.296 Z" id="Shape"></path>
                <path d="M240,249 L264,249 C268.418278,249 272,245.418278 272,241 C272,236.581722 268.418278,233 264,233 L240,233 C209.072054,233 184,207.927946 184,177 C184,146.072054 209.072054,121 240,121 C270.927946,121 296,146.072054 296,177 L296,193 C296,197.418278 292.418278,201 288,201 C283.581722,201 280,197.418278 280,193 L280,177 C280.091306,157.873561 266.691376,141.332302 247.962471,137.451953 C229.233566,133.571603 210.364596,143.427228 202.849162,161.015498 C195.333728,178.603769 201.254009,199.051792 217.0038,209.904122 C232.753592,220.756452 253.969358,219.006413 267.728,205.72 C273.390389,214.793783 284.382477,219.013703 294.66221,216.060184 C304.941942,213.106665 312.017647,203.6956 312.000066,193 L312.000066,177 C312.000066,137.235498 279.764502,105 240,105 C200.235498,105 168,137.235498 168,177 C168,216.764502 200.235498,249 240,249 Z M240,201 C226.745166,201 216,190.254834 216,177 C216,163.745166 226.745166,153 240,153 C253.254834,153 264,163.745166 264,177 C264,190.254834 253.254834,201 240,201 Z" id="Shape"></path>
            </g>
            <path d="M247.2165,418.7835 C245.4495,417.0165 243.008,416 240.5,416 C238.0015,416 235.5505,417.0165 233.7835,418.7835 C232.0165,420.5505 231,423.0015 231,425.5 C231,428.008 232.0165,430.4495 233.7835,432.2165 C235.5505,433.9835 238.0015,435 240.5,435 C243.008,435 245.4495,433.9835 247.2165,432.2165 C248.9835,430.4495 250,428.008 250,425.5 C250,423.0015 248.9835,420.55145 247.2165,418.7835 Z" id="Path" stroke-width="7.68000031"></path>
        </g>
    </g>
</svg>