<?xml version="1.0" encoding="UTF-8" standalone="no"?>
<svg width="130px" height="97px" viewBox="0 0 130 97" version="1.1" xmlns="http://www.w3.org/2000/svg" xmlns:xlink="http://www.w3.org/1999/xlink">
    <!-- Generator: Sketch 46.2 (44496) - http://www.bohemiancoding.com/sketch -->
    <title>handwrite_statement</title>
    <desc>Created with Sketch.</desc>
    <defs></defs>
    <g id="Symbols" stroke="none" stroke-width="1" fill="none" fill-rule="evenodd">
        <g id="handwrite_statement">
            <g id="Page-1">
                <path d="M33.3463,16.3376 L33.4453,16.2956 L33.8353,16.3656 L33.7823,16.5176 L33.8643,16.7156 L34.2183,16.6966 L34.1723,16.5876 L34.3173,16.6556 L36.8793,15.5926 L37.0313,15.6466 L37.1303,15.6056 L37.0883,15.5056 L37.2293,15.5646 L37.3393,15.5186 C38.9443,14.8526 40.5193,14.3996 42.0633,14.1626 L42.4803,13.9886 L42.5633,14.1876 L42.1453,14.3596 L42.0053,14.3036 L41.9473,14.4426 L41.6393,14.5696 L41.0813,14.6876 L40.5063,15.0406 L40.1983,15.1686 L39.6403,15.2846 L39.6813,15.3836 L39.5413,15.3256 L39.4423,15.3666 L34.8803,17.1446 L34.3633,17.3586 L34.2193,17.2896 C33.4633,17.6036 32.6793,18.6136 31.8663,20.3176 C31.0433,21.4846 30.4783,22.4416 30.1693,23.1896 C29.7963,23.8426 29.6623,24.2966 29.7683,24.5536 L29.9243,24.6176 L31.0463,24.1516 C32.3243,22.8826 32.9573,22.4186 32.9433,22.7596 L33.2093,23.0876 C32.8343,23.5526 32.0073,24.2316 30.7273,25.1236 C29.8403,25.4916 29.2683,25.3676 29.0133,24.7516 C29.0723,24.0666 29.7613,22.5366 31.0803,20.1666 L32.0513,18.4366 L32.0103,18.3366 L31.0863,18.7196 L31.0173,18.8646 C30.4753,19.0906 30.1043,18.9636 29.9063,18.4866 L30.1283,18.1506 L30.8833,17.9526 L30.9823,17.9116 L31.3603,17.6406 L31.7083,17.6096 L31.7673,17.4706 L32.3243,17.3546 L32.9403,17.0986 L33.3463,16.3376 Z" id="Fill-1" fill="#222222"></path>
                <path d="M33.3463,16.3376 L33.4453,16.2956 L33.8353,16.3656 L33.7823,16.5176 L33.8643,16.7156 L34.2183,16.6966 L34.1723,16.5876 L34.3173,16.6556 L36.8793,15.5926 L37.0313,15.6466 L37.1303,15.6056 L37.0883,15.5056 L37.2293,15.5646 L37.3393,15.5186 C38.9443,14.8526 40.5193,14.3996 42.0633,14.1626 L42.4803,13.9886 L42.5633,14.1876 L42.1453,14.3596 L42.0053,14.3036 L41.9473,14.4426 L41.6393,14.5696 L41.0813,14.6876 L40.5063,15.0406 L40.1983,15.1686 L39.6403,15.2846 L39.6813,15.3836 L39.5413,15.3256 L39.4423,15.3666 L34.8803,17.1446 L34.3633,17.3586 L34.2193,17.2896 C33.4633,17.6036 32.6793,18.6136 31.8663,20.3176 C31.0433,21.4846 30.4783,22.4416 30.1693,23.1896 C29.7963,23.8426 29.6623,24.2966 29.7683,24.5536 L29.9243,24.6176 L31.0463,24.1516 C32.3243,22.8826 32.9573,22.4186 32.9433,22.7596 L33.2093,23.0876 C32.8343,23.5526 32.0073,24.2316 30.7273,25.1236 C29.8403,25.4916 29.2683,25.3676 29.0133,24.7516 C29.0723,24.0666 29.7613,22.5366 31.0803,20.1666 L32.0513,18.4366 L32.0103,18.3366 L31.0863,18.7196 L31.0173,18.8646 C30.4753,19.0906 30.1043,18.9636 29.9063,18.4866 L30.1283,18.1506 L30.8833,17.9526 L30.9823,17.9116 L31.3603,17.6406 L31.7083,17.6096 L31.7673,17.4706 L32.3243,17.3546 L32.9403,17.0986 L33.3463,16.3376 Z" id="Stroke-3" stroke="#222222" stroke-width="0.2"></path>
                <path d="M43.5966,10.2644 L43.7526,10.3284 L43.7976,10.4384 C43.9256,10.7464 43.5236,11.4234 42.5926,12.4724 C40.0306,15.7444 38.0656,18.3924 36.6956,20.4134 L36.0666,21.6954 L36.1126,21.8044 C36.3176,21.7194 37.5876,20.2544 39.9236,17.4104 C40.5786,16.7954 41.1336,16.3934 41.5886,16.2034 C41.7346,16.1434 41.8536,16.2224 41.9456,16.4434 C42.1556,16.9494 41.8006,17.9474 40.8806,19.4384 L40.8276,19.5884 L40.9646,19.9184 L41.9176,19.4194 L42.0466,19.1094 L42.2666,19.0174 C42.4126,18.9564 42.5316,19.0354 42.6236,19.2554 L42.3796,19.6014 L41.3326,20.5264 C41.0036,20.6454 40.6186,20.6384 40.1756,20.5044 C40.1036,19.9574 40.4646,18.8704 41.2586,17.2434 L41.2136,17.1334 L41.1036,17.1794 C40.4386,17.6274 39.1716,19.0904 37.3036,21.5684 C36.9826,22.0364 36.6046,22.3604 36.1726,22.5394 L35.0956,22.7424 C34.9436,22.3754 35.1776,21.8094 35.7966,21.0444 L36.7456,19.5414 L36.2016,19.8454 L36.0916,19.8914 C36.0216,20.1784 35.4096,20.8584 34.2566,21.9304 C33.2296,22.9574 32.6896,23.4574 32.6346,23.4294 L32.4736,23.9724 L32.4436,23.7144 C31.5126,24.3504 31.2196,24.4654 31.5626,24.0604 C31.9056,23.6564 34.7546,20.5634 40.1076,14.7824 C42.0666,11.9224 43.2296,10.4164 43.5966,10.2644" id="Fill-5" fill="#222222"></path>
                <path d="M43.5966,10.2644 L43.7526,10.3284 L43.7976,10.4384 C43.9256,10.7464 43.5236,11.4234 42.5926,12.4724 C40.0306,15.7444 38.0656,18.3924 36.6956,20.4134 L36.0666,21.6954 L36.1126,21.8044 C36.3176,21.7194 37.5876,20.2544 39.9236,17.4104 C40.5786,16.7954 41.1336,16.3934 41.5886,16.2034 C41.7346,16.1434 41.8536,16.2224 41.9456,16.4434 C42.1556,16.9494 41.8006,17.9474 40.8806,19.4384 L40.8276,19.5884 L40.9646,19.9184 L41.9176,19.4194 L42.0466,19.1094 L42.2666,19.0174 C42.4126,18.9564 42.5316,19.0354 42.6236,19.2554 L42.3796,19.6014 L41.3326,20.5264 C41.0036,20.6454 40.6186,20.6384 40.1756,20.5044 C40.1036,19.9574 40.4646,18.8704 41.2586,17.2434 L41.2136,17.1334 L41.1036,17.1794 C40.4386,17.6274 39.1716,19.0904 37.3036,21.5684 C36.9826,22.0364 36.6046,22.3604 36.1726,22.5394 L35.0956,22.7424 C34.9436,22.3754 35.1776,21.8094 35.7966,21.0444 L36.7456,19.5414 L36.2016,19.8454 L36.0916,19.8914 C36.0216,20.1784 35.4096,20.8584 34.2566,21.9304 C33.2296,22.9574 32.6896,23.4574 32.6346,23.4294 L32.4736,23.9724 L32.4436,23.7144 C31.5126,24.3504 31.2196,24.4654 31.5626,24.0604 C31.9056,23.6564 34.7546,20.5634 40.1076,14.7824 C42.0666,11.9224 43.2296,10.4164 43.5966,10.2644 Z" id="Stroke-7" stroke="#222222" stroke-width="0.2"></path>
                <path d="M44.3645,14.1491 L44.4985,14.2221 L44.6175,14.1991 L44.6965,14.0481 L44.8465,14.1291 L44.8695,14.2491 C44.6455,14.3071 44.5515,14.6931 44.5905,15.4081 L44.2585,15.5081 L43.8325,15.2581 L43.7675,15.0421 C43.7305,14.9111 43.9295,14.6131 44.3645,14.1491 M43.4935,16.5861 L43.8305,16.4981 L43.9755,16.5661 L44.0945,16.5431 L42.9945,19.5141 L42.8755,19.5381 L42.5925,19.3841 L42.5575,19.2691 C42.4255,18.7221 42.7375,17.8281 43.4935,16.5861" id="Fill-9" fill="#222222"></path>
                <path d="M44.3645,14.1491 L44.4985,14.2221 L44.6175,14.1991 L44.6965,14.0481 L44.8465,14.1291 L44.8695,14.2491 C44.6455,14.3071 44.5515,14.6931 44.5905,15.4081 L44.2585,15.5081 L43.8325,15.2581 L43.7675,15.0421 C43.7305,14.9111 43.9295,14.6131 44.3645,14.1491 Z M43.4935,16.5861 L43.8305,16.4981 L43.9755,16.5661 L44.0945,16.5431 L42.9945,19.5141 L42.8755,19.5381 L42.5925,19.3841 L42.5575,19.2691 C42.4255,18.7221 42.7375,17.8281 43.4935,16.5861 Z" id="Stroke-11" stroke="#222222" stroke-width="0.2"></path>
                <path d="M43.9511,17.7888 L44.2951,17.5288 L44.9951,16.6708 L45.0541,16.5318 L45.2041,16.5848 L45.5011,16.4608 L45.8681,16.1938 L46.3461,16.2268 L46.2421,17.0958 L46.2831,17.1938 C47.2721,16.0778 48.1191,15.3738 48.8231,15.0818 L48.9221,15.0408 L49.2021,15.1568 L49.0011,16.6588 L49.1411,16.7178 L49.9001,16.2478 L50.3701,16.1678 L49.8851,16.8328 L49.3421,17.2008 C48.8641,17.3738 48.4961,17.3378 48.2391,17.0918 L48.3431,16.2238 L48.3011,16.1238 L45.7901,18.5848 C45.3591,18.6858 45.1151,18.6678 45.0571,18.5278 L44.8521,18.0338 C45.0871,17.9358 45.1851,17.6978 45.1481,17.3178 L44.3371,18.2228 L43.5021,19.0068 L43.1161,18.9468 C43.5291,18.3888 43.8081,18.0038 43.9511,17.7888" id="Fill-13" fill="#222222"></path>
                <path d="M43.9511,17.7888 L44.2951,17.5288 L44.9951,16.6708 L45.0541,16.5318 L45.2041,16.5848 L45.5011,16.4608 L45.8681,16.1938 L46.3461,16.2268 L46.2421,17.0958 L46.2831,17.1938 C47.2721,16.0778 48.1191,15.3738 48.8231,15.0818 L48.9221,15.0408 L49.2021,15.1568 L49.0011,16.6588 L49.1411,16.7178 L49.9001,16.2478 L50.3701,16.1678 L49.8851,16.8328 L49.3421,17.2008 C48.8641,17.3738 48.4961,17.3378 48.2391,17.0918 L48.3431,16.2238 L48.3011,16.1238 L45.7901,18.5848 C45.3591,18.6858 45.1151,18.6678 45.0571,18.5278 L44.8521,18.0338 C45.0871,17.9358 45.1851,17.6978 45.1481,17.3178 L44.3371,18.2228 L43.5021,19.0068 L43.1161,18.9468 C43.5291,18.3888 43.8081,18.0038 43.9511,17.7888 Z" id="Stroke-15" stroke="#222222" stroke-width="0.2"></path>
                <path d="M36.2985,26.612 L36.3975,26.571 L36.3445,26.722 L36.3895,26.833 C37.0325,28.38 38.0575,28.861 39.4655,28.277 L39.6745,28.19 C40.7005,27.764 41.8485,27.039 43.1165,26.013 L43.1615,26.124 C46.3895,23.399 48.2375,21.681 48.7075,20.97 C42.9385,21.715 39.2265,22.431 37.5685,23.119 C36.4555,24.019 36.0125,24.742 36.2375,25.285 C36.0755,25.351 36.0965,25.794 36.2985,26.612 M40.9695,21.464 C46.1665,20.793 49.0395,20.342 49.5895,20.114 C50.2355,19.846 51.5555,18.555 53.5515,16.239 L53.3955,16.174 L53.3545,16.075 C53.6405,15.957 53.7535,15.824 53.6925,15.677 L52.8455,16.029 C51.1605,16.548 50.1605,16.426 49.8445,15.664 C49.6405,15.173 49.8165,14.604 50.3745,13.96 L50.5305,14.024 L50.5835,13.873 L50.6295,13.983 L50.6935,13.828 C51.0455,13.681 51.6465,13.638 52.4965,13.698 L52.6295,14.017 C52.6875,14.157 52.6095,14.27 52.3965,14.358 L51.4405,14.136 C50.8025,14.401 50.4695,14.789 50.4405,15.299 L50.5275,15.508 C50.6435,15.788 51.1895,15.81 52.1675,15.576 L52.1215,15.466 L53.0445,15.327 L53.1135,15.183 L54.2795,14.699 L54.7305,14.885 C54.9855,15.501 53.7425,17.091 50.9995,19.658 L51.0405,19.758 L53.0755,19.286 L53.1405,19.13 L54.4965,18.825 L54.5605,18.67 L54.6705,18.624 L55.2445,18.514 L55.2975,18.363 L55.4075,18.318 L55.7725,18.295 L55.7265,18.185 L55.8715,18.254 L56.4095,18.03 L56.4635,17.88 L56.8275,17.857 L56.8695,17.957 L56.6605,18.044 L56.7015,18.141 L56.5505,18.089 L56.4515,18.13 L55.5805,18.735 L55.5355,18.626 L55.4705,18.781 L55.1625,18.909 L55.0075,18.844 L54.9435,19.001 L54.5255,19.174 C53.4695,19.612 52.5935,19.895 51.8975,20.02 L51.9385,20.119 L51.7875,20.066 L51.6885,20.107 L51.6195,20.252 L49.7445,20.798 L48.2535,22.268 L48.2125,22.17 C44.7855,25.406 42.6385,27.204 41.7735,27.563 L41.8195,27.673 L41.4545,27.695 L40.9075,28.18 L39.8525,28.619 C37.9455,29.41 36.6695,29.028 36.0245,27.474 C35.3025,25.736 35.5685,24.181 36.8215,22.81 L37.6235,22.348 L37.7785,22.413 L37.9875,22.326 L38.2615,22.084 L40.0355,21.605 C39.9625,21.429 40.2735,21.383 40.9695,21.464" id="Fill-17" fill="#222222"></path>
                <path d="M36.2985,26.612 L36.3975,26.571 L36.3445,26.722 L36.3895,26.833 C37.0325,28.38 38.0575,28.861 39.4655,28.277 L39.6745,28.19 C40.7005,27.764 41.8485,27.039 43.1165,26.013 L43.1615,26.124 C46.3895,23.399 48.2375,21.681 48.7075,20.97 C42.9385,21.715 39.2265,22.431 37.5685,23.119 C36.4555,24.019 36.0125,24.742 36.2375,25.285 C36.0755,25.351 36.0965,25.794 36.2985,26.612 Z M40.9695,21.464 C46.1665,20.793 49.0395,20.342 49.5895,20.114 C50.2355,19.846 51.5555,18.555 53.5515,16.239 L53.3955,16.174 L53.3545,16.075 C53.6405,15.957 53.7535,15.824 53.6925,15.677 L52.8455,16.029 C51.1605,16.548 50.1605,16.426 49.8445,15.664 C49.6405,15.173 49.8165,14.604 50.3745,13.96 L50.5305,14.024 L50.5835,13.873 L50.6295,13.983 L50.6935,13.828 C51.0455,13.681 51.6465,13.638 52.4965,13.698 L52.6295,14.017 C52.6875,14.157 52.6095,14.27 52.3965,14.358 L51.4405,14.136 C50.8025,14.401 50.4695,14.789 50.4405,15.299 L50.5275,15.508 C50.6435,15.788 51.1895,15.81 52.1675,15.576 L52.1215,15.466 L53.0445,15.327 L53.1135,15.183 L54.2795,14.699 L54.7305,14.885 C54.9855,15.501 53.7425,17.091 50.9995,19.658 L51.0405,19.758 L53.0755,19.286 L53.1405,19.13 L54.4965,18.825 L54.5605,18.67 L54.6705,18.624 L55.2445,18.514 L55.2975,18.363 L55.4075,18.318 L55.7725,18.295 L55.7265,18.185 L55.8715,18.254 L56.4095,18.03 L56.4635,17.88 L56.8275,17.857 L56.8695,17.957 L56.6605,18.044 L56.7015,18.141 L56.5505,18.089 L56.4515,18.13 L55.5805,18.735 L55.5355,18.626 L55.4705,18.781 L55.1625,18.909 L55.0075,18.844 L54.9435,19.001 L54.5255,19.174 C53.4695,19.612 52.5935,19.895 51.8975,20.02 L51.9385,20.119 L51.7875,20.066 L51.6885,20.107 L51.6195,20.252 L49.7445,20.798 L48.2535,22.268 L48.2125,22.17 C44.7855,25.406 42.6385,27.204 41.7735,27.563 L41.8195,27.673 L41.4545,27.695 L40.9075,28.18 L39.8525,28.619 C37.9455,29.41 36.6695,29.028 36.0245,27.474 C35.3025,25.736 35.5685,24.181 36.8215,22.81 L37.6235,22.348 L37.7785,22.413 L37.9875,22.326 L38.2615,22.084 L40.0355,21.605 C39.9625,21.429 40.2735,21.383 40.9695,21.464 Z" id="Stroke-19" stroke="#222222" stroke-width="0.2"></path>
                <path d="M56.8071,8.8288 L56.9171,8.7828 L57.5241,9.0348 L57.6611,9.3648 L57.5331,9.6758 L57.4231,9.7218 L56.9021,9.6798 C56.0951,10.5908 55.7681,11.2328 55.9231,11.6068 C56.2671,11.9798 56.6121,12.0958 56.9561,11.9528 L57.1801,12.4908 C56.9601,12.5818 56.8941,12.7348 56.9831,12.9468 L57.1381,13.0118 L57.7311,12.3908 L57.8871,12.4548 C57.7701,12.1508 57.7691,11.9938 57.8831,11.9798 C58.4971,11.4078 58.8151,11.4078 58.8381,11.9818 L58.3151,12.3678 L57.7541,12.7558 L55.0931,15.1368 L55.0481,15.0258 L54.9831,15.1828 L54.8841,15.2238 L54.4171,15.0298 L54.3771,14.9328 C54.3221,14.7998 54.8391,14.2018 55.9281,13.1398 L55.9811,12.9878 L56.0911,12.9428 L55.9541,12.6128 C55.5341,12.4088 55.2861,12.2158 55.2101,12.0328 C55.0001,11.5268 55.3461,10.6208 56.2491,9.3178 L56.8071,8.8288 Z" id="Fill-21" fill="#222222"></path>
                <path d="M56.8071,8.8288 L56.9171,8.7828 L57.5241,9.0348 L57.6611,9.3648 L57.5331,9.6758 L57.4231,9.7218 L56.9021,9.6798 C56.0951,10.5908 55.7681,11.2328 55.9231,11.6068 C56.2671,11.9798 56.6121,12.0958 56.9561,11.9528 L57.1801,12.4908 C56.9601,12.5818 56.8941,12.7348 56.9831,12.9468 L57.1381,13.0118 L57.7311,12.3908 L57.8871,12.4548 C57.7701,12.1508 57.7691,11.9938 57.8831,11.9798 C58.4971,11.4078 58.8151,11.4078 58.8381,11.9818 L58.3151,12.3678 L57.7541,12.7558 L55.0931,15.1368 L55.0481,15.0258 L54.9831,15.1828 L54.8841,15.2238 L54.4171,15.0298 L54.3771,14.9328 C54.3221,14.7998 54.8391,14.2018 55.9281,13.1398 L55.9811,12.9878 L56.0911,12.9428 L55.9541,12.6128 C55.5341,12.4088 55.2861,12.2158 55.2101,12.0328 C55.0001,11.5268 55.3461,10.6208 56.2491,9.3178 L56.8071,8.8288 Z" id="Stroke-23" stroke="#222222" stroke-width="0.2"></path>
                <path d="M66.4851,8.8357 L66.5711,8.8007 L66.9111,8.8607 L66.8641,8.9927 L66.9361,9.1647 L67.2441,9.1487 L67.2041,9.0537 L67.3301,9.1137 L69.5601,8.1887 L69.6921,8.2347 L69.7781,8.1987 L69.7421,8.1117 L69.8641,8.1627 L69.9601,8.1237 C71.3581,7.5437 72.7281,7.1487 74.0711,6.9427 L74.4351,6.7927 L74.5071,6.9647 L74.1431,7.1157 L74.0211,7.0657 L73.9711,7.1877 L73.7021,7.2987 L73.2171,7.3997 L72.7171,7.7077 L72.4491,7.8187 L71.9631,7.9207 L71.9991,8.0057 L71.8771,7.9557 L71.7911,7.9917 L67.8201,9.5387 L67.3701,9.7257 L67.2451,9.6657 C66.5871,9.9387 65.9051,10.8167 65.1961,12.3017 C64.4811,13.3157 63.9891,14.1487 63.7201,14.7997 C63.3951,15.3677 63.2781,15.7637 63.3711,15.9867 L63.5071,16.0427 L64.4831,15.6377 C65.5951,14.5327 66.1461,14.1287 66.1351,14.4257 L66.3651,14.7107 C66.0401,15.1157 65.3201,15.7067 64.2061,16.4827 C63.4331,16.8037 62.9361,16.6957 62.7141,16.1597 C62.7651,15.5627 63.3641,14.2317 64.5131,12.1687 L65.3581,10.6627 L65.3221,10.5757 L64.5181,10.9097 L64.4581,11.0357 C63.9861,11.2317 63.6631,11.1227 63.4911,10.7077 L63.6841,10.4147 L64.3421,10.2417 L64.4281,10.2067 L64.7561,9.9697 L65.0601,9.9437 L65.1101,9.8227 L65.5961,9.7217 L66.1321,9.4987 L66.4851,8.8357 Z" id="Fill-25" fill="#222222"></path>
                <path d="M66.4851,8.8357 L66.5711,8.8007 L66.9111,8.8607 L66.8641,8.9927 L66.9361,9.1647 L67.2441,9.1487 L67.2041,9.0537 L67.3301,9.1137 L69.5601,8.1887 L69.6921,8.2347 L69.7781,8.1987 L69.7421,8.1117 L69.8641,8.1627 L69.9601,8.1237 C71.3581,7.5437 72.7281,7.1487 74.0711,6.9427 L74.4351,6.7927 L74.5071,6.9647 L74.1431,7.1157 L74.0211,7.0657 L73.9711,7.1877 L73.7021,7.2987 L73.2171,7.3997 L72.7171,7.7077 L72.4491,7.8187 L71.9631,7.9207 L71.9991,8.0057 L71.8771,7.9557 L71.7911,7.9917 L67.8201,9.5387 L67.3701,9.7257 L67.2451,9.6657 C66.5871,9.9387 65.9051,10.8167 65.1961,12.3017 C64.4811,13.3157 63.9891,14.1487 63.7201,14.7997 C63.3951,15.3677 63.2781,15.7637 63.3711,15.9867 L63.5071,16.0427 L64.4831,15.6377 C65.5951,14.5327 66.1461,14.1287 66.1351,14.4257 L66.3651,14.7107 C66.0401,15.1157 65.3201,15.7067 64.2061,16.4827 C63.4331,16.8037 62.9361,16.6957 62.7141,16.1597 C62.7651,15.5627 63.3641,14.2317 64.5131,12.1687 L65.3581,10.6627 L65.3221,10.5757 L64.5181,10.9097 L64.4581,11.0357 C63.9861,11.2317 63.6631,11.1227 63.4911,10.7077 L63.6841,10.4147 L64.3421,10.2417 L64.4281,10.2067 L64.7561,9.9697 L65.0601,9.9437 L65.1101,9.8227 L65.5961,9.7217 L66.1321,9.4987 L66.4851,8.8357 Z" id="Stroke-27" stroke="#222222" stroke-width="0.2"></path>
                <path d="M75.407,3.5505 L75.542,3.6065 L75.582,3.7015 C75.693,3.9695 75.344,4.5595 74.533,5.4725 C72.304,8.3215 70.593,10.6245 69.401,12.3835 L68.853,13.4985 L68.893,13.5945 C69.072,13.5205 70.177,12.2455 72.21,9.7705 C72.78,9.2355 73.264,8.8845 73.659,8.7205 C73.787,8.6665 73.89,8.7365 73.97,8.9275 C74.153,9.3675 73.844,10.2375 73.043,11.5345 L72.997,11.6655 L73.116,11.9525 L73.946,11.5195 L74.058,11.2475 L74.249,11.1685 C74.377,11.1155 74.48,11.1855 74.56,11.3765 L74.348,11.6765 L73.436,12.4815 C73.15,12.5855 72.815,12.5795 72.43,12.4625 C72.367,11.9875 72.681,11.0415 73.373,9.6245 L73.333,9.5295 L73.237,9.5695 C72.658,9.9585 71.556,11.2325 69.93,13.3885 C69.65,13.7965 69.322,14.0775 68.946,14.2345 L68.009,14.4105 C67.876,14.0915 68.079,13.5985 68.619,12.9335 L69.445,11.6245 L68.971,11.8895 L68.875,11.9285 C68.814,12.1785 68.282,12.7715 67.278,13.7035 C66.385,14.5985 65.914,15.0325 65.866,15.0085 L65.726,15.4815 L65.7,15.2565 C64.89,15.8105 64.634,15.9095 64.933,15.5575 C65.232,15.2055 67.711,12.5135 72.371,7.4825 C74.076,4.9925 75.088,3.6825 75.407,3.5505" id="Fill-29" fill="#222222"></path>
                <path d="M75.407,3.5505 L75.542,3.6065 L75.582,3.7015 C75.693,3.9695 75.344,4.5595 74.533,5.4725 C72.304,8.3215 70.593,10.6245 69.401,12.3835 L68.853,13.4985 L68.893,13.5945 C69.072,13.5205 70.177,12.2455 72.21,9.7705 C72.78,9.2355 73.264,8.8845 73.659,8.7205 C73.787,8.6665 73.89,8.7365 73.97,8.9275 C74.153,9.3675 73.844,10.2375 73.043,11.5345 L72.997,11.6655 L73.116,11.9525 L73.946,11.5195 L74.058,11.2475 L74.249,11.1685 C74.377,11.1155 74.48,11.1855 74.56,11.3765 L74.348,11.6765 L73.436,12.4815 C73.15,12.5855 72.815,12.5795 72.43,12.4625 C72.367,11.9875 72.681,11.0415 73.373,9.6245 L73.333,9.5295 L73.237,9.5695 C72.658,9.9585 71.556,11.2325 69.93,13.3885 C69.65,13.7965 69.322,14.0775 68.946,14.2345 L68.009,14.4105 C67.876,14.0915 68.079,13.5985 68.619,12.9335 L69.445,11.6245 L68.971,11.8895 L68.875,11.9285 C68.814,12.1785 68.282,12.7715 67.278,13.7035 C66.385,14.5985 65.914,15.0325 65.866,15.0085 L65.726,15.4815 L65.7,15.2565 C64.89,15.8105 64.634,15.9095 64.933,15.5575 C65.232,15.2055 67.711,12.5135 72.371,7.4825 C74.076,4.9925 75.088,3.6825 75.407,3.5505 Z" id="Stroke-31" stroke="#222222" stroke-width="0.2"></path>
                <path d="M75.2015,8.5837 C75.8245,8.4977 76.2095,8.6337 76.3585,8.9907 L76.1955,9.3837 C76.0675,9.4367 75.9525,9.3387 75.8495,9.0907 L75.5325,9.1097 C74.8965,9.6877 74.6785,10.2157 74.8765,10.6937 L74.9165,10.7897 L75.5515,10.7507 C76.3865,10.1117 76.7635,9.6977 76.6845,9.5067 L76.8195,9.5627 L77.6195,8.5677 L77.7055,8.5317 L78.0055,8.9577 C77.8105,9.5697 77.7505,9.9647 77.8245,10.1437 L78.1115,10.0237 L78.7845,9.5107 L78.8705,9.4747 C78.9765,9.7297 78.6435,10.1627 77.8725,10.7737 C77.5415,10.7697 77.3345,10.7107 77.2495,10.5967 L77.1735,10.4137 L77.1495,10.0867 L77.0545,10.1267 L75.8415,11.1807 L75.8025,11.0847 L75.7465,11.2207 L75.6605,11.2567 C74.9075,11.5687 74.4005,11.4127 74.1415,10.7867 C74.4785,9.4727 74.8315,8.7377 75.2015,8.5837" id="Fill-33" fill="#222222"></path>
                <path d="M75.2015,8.5837 C75.8245,8.4977 76.2095,8.6337 76.3585,8.9907 L76.1955,9.3837 C76.0675,9.4367 75.9525,9.3387 75.8495,9.0907 L75.5325,9.1097 C74.8965,9.6877 74.6785,10.2157 74.8765,10.6937 L74.9165,10.7897 L75.5515,10.7507 C76.3865,10.1117 76.7635,9.6977 76.6845,9.5067 L76.8195,9.5627 L77.6195,8.5677 L77.7055,8.5317 L78.0055,8.9577 C77.8105,9.5697 77.7505,9.9647 77.8245,10.1437 L78.1115,10.0237 L78.7845,9.5107 L78.8705,9.4747 C78.9765,9.7297 78.6435,10.1627 77.8725,10.7737 C77.5415,10.7697 77.3345,10.7107 77.2495,10.5967 L77.1735,10.4137 L77.1495,10.0867 L77.0545,10.1267 L75.8415,11.1807 L75.8025,11.0847 L75.7465,11.2207 L75.6605,11.2567 C74.9075,11.5687 74.4005,11.4127 74.1415,10.7867 C74.4785,9.4727 74.8315,8.7377 75.2015,8.5837 Z" id="Stroke-35" stroke="#222222" stroke-width="0.2"></path>
                <path d="M81.2631,2.1745 L81.3491,2.1385 L81.6891,2.1995 L81.6421,2.3315 L81.7141,2.5035 L82.0221,2.4875 L81.9821,2.3925 L82.1081,2.4515 L84.3381,1.5265 L84.4701,1.5725 L84.5561,1.5375 L84.5201,1.4505 L84.6421,1.5015 L84.7381,1.4615 C86.1361,0.8815 87.5061,0.4875 88.8491,0.2815 L89.2131,0.1305 L89.2851,0.3035 L88.9211,0.4535 L88.7991,0.4035 L88.7491,0.5255 L88.4811,0.6365 L87.9951,0.7375 L87.4951,1.0465 L87.2271,1.1575 L86.7411,1.2585 L86.7771,1.3445 L86.6551,1.2945 L86.5691,1.3305 L82.5981,2.8765 L82.1481,3.0645 L82.0231,3.0035 C81.3651,3.2775 80.6831,4.1555 79.9741,5.6395 C79.2591,6.6545 78.7671,7.4875 78.4981,8.1375 C78.1731,8.7065 78.0571,9.1025 78.1491,9.3255 L78.2851,9.3815 L79.2611,8.9765 C80.3731,7.8705 80.9241,7.4675 80.9131,7.7635 L81.1431,8.0495 C80.8181,8.4535 80.0981,9.0445 78.9841,9.8215 C78.2121,10.1425 77.7141,10.0345 77.4921,9.4985 C77.5431,8.9015 78.1421,7.5705 79.2911,5.5075 L80.1361,4.0005 L80.1001,3.9145 L79.2961,4.2475 L79.2361,4.3745 C78.7641,4.5705 78.4411,4.4605 78.2691,4.0455 L78.4621,3.7535 L79.1201,3.5805 L79.2061,3.5445 L79.5341,3.3085 L79.8381,3.2825 L79.8881,3.1605 L80.3741,3.0605 L80.9101,2.8375 L81.2631,2.1745 Z" id="Fill-37" fill="#222222"></path>
                <path d="M81.2631,2.1745 L81.3491,2.1385 L81.6891,2.1995 L81.6421,2.3315 L81.7141,2.5035 L82.0221,2.4875 L81.9821,2.3925 L82.1081,2.4515 L84.3381,1.5265 L84.4701,1.5725 L84.5561,1.5375 L84.5201,1.4505 L84.6421,1.5015 L84.7381,1.4615 C86.1361,0.8815 87.5061,0.4875 88.8491,0.2815 L89.2131,0.1305 L89.2851,0.3035 L88.9211,0.4535 L88.7991,0.4035 L88.7491,0.5255 L88.4811,0.6365 L87.9951,0.7375 L87.4951,1.0465 L87.2271,1.1575 L86.7411,1.2585 L86.7771,1.3445 L86.6551,1.2945 L86.5691,1.3305 L82.5981,2.8765 L82.1481,3.0645 L82.0231,3.0035 C81.3651,3.2775 80.6831,4.1555 79.9741,5.6395 C79.2591,6.6545 78.7671,7.4875 78.4981,8.1375 C78.1731,8.7065 78.0571,9.1025 78.1491,9.3255 L78.2851,9.3815 L79.2611,8.9765 C80.3731,7.8705 80.9241,7.4675 80.9131,7.7635 L81.1431,8.0495 C80.8181,8.4535 80.0981,9.0445 78.9841,9.8215 C78.2121,10.1425 77.7141,10.0345 77.4921,9.4985 C77.5431,8.9015 78.1421,7.5705 79.2911,5.5075 L80.1361,4.0005 L80.1001,3.9145 L79.2961,4.2475 L79.2361,4.3745 C78.7641,4.5705 78.4411,4.4605 78.2691,4.0455 L78.4621,3.7535 L79.1201,3.5805 L79.2061,3.5445 L79.5341,3.3085 L79.8381,3.2825 L79.8881,3.1605 L80.3741,3.0605 L80.9101,2.8375 L81.2631,2.1745 Z" id="Stroke-39" stroke="#222222" stroke-width="0.2"></path>
                <path d="M16.6034,51.2898 L16.7904,51.1558 C17.8744,49.0008 18.4864,47.3258 18.6264,46.1348 L18.4394,46.2688 C17.3044,48.0698 16.6924,49.7448 16.6034,51.2898 M18.2114,44.7358 L18.7354,44.3618 L19.3984,44.4738 C19.3634,46.6568 18.8384,48.6638 17.8234,50.4928 C17.5004,51.3768 16.9444,52.4268 16.1564,53.6428 L16.1184,55.2508 L16.2964,55.4998 L17.0834,56.3108 L16.6584,56.8228 C15.9614,56.5678 15.5124,56.2988 15.3104,56.0168 L15.1584,55.5398 L15.0334,55.6288 L12.8704,58.9268 L12.6564,58.8908 L12.5314,58.9798 L11.0374,61.0258 L10.8234,60.9908 L10.6984,61.0798 L10.1394,61.6678 C8.8194,62.3848 7.8744,62.3448 7.3044,61.5468 C6.6704,60.4308 6.7724,59.5708 7.6114,58.9718 L7.7494,58.8738 C8.2894,58.4878 9.1384,58.4028 10.2964,58.6178 L10.5104,59.4448 L10.2484,59.6318 L8.5624,59.4598 L8.6614,59.5978 L8.1634,59.7448 C7.9184,60.1208 7.8404,60.3728 7.9294,60.4968 L8.3924,61.1448 L10.2354,60.4318 C11.3884,59.4448 13.0654,57.1358 15.2664,53.5038 C15.9584,49.7098 16.9394,46.7868 18.2114,44.7358" id="Fill-41" fill="#222222"></path>
                <path d="M19.75,49.2439 L19.921,49.3399 L20.075,49.3099 L20.178,49.1179 L20.37,49.2229 L20.399,49.3769 C20.11,49.4499 19.986,49.9459 20.03,50.8659 L19.601,50.9919 L19.055,50.6669 L18.974,50.3869 C18.928,50.2179 19.186,49.8369 19.75,49.2439 M18.607,52.3709 L19.042,52.2609 L19.227,52.3499 L19.381,52.3199 L17.939,56.1339 L17.785,56.1629 L17.422,55.9629 L17.379,55.8149 C17.213,55.1099 17.623,53.9629 18.607,52.3709" id="Fill-43" fill="#222222"></path>
                <path d="M20.4562,48.2155 L20.5982,48.1575 L21.3772,48.4865 L21.5502,48.9125 L21.3822,49.3125 L21.2402,49.3695 L20.5712,49.3115 C19.5232,50.4765 19.0982,51.2995 19.2942,51.7815 C19.7332,52.2655 20.1752,52.4165 20.6202,52.2355 L20.9022,52.9295 C20.6182,53.0455 20.5332,53.2405 20.6442,53.5155 L20.8442,53.5995 L21.6132,52.8065 L21.8132,52.8905 C21.6642,52.4985 21.6642,52.2955 21.8122,52.2785 C22.6062,51.5485 23.0162,51.5515 23.0412,52.2905 L22.3642,52.7825 L21.6392,53.2765 L18.1942,56.3145 L18.1362,56.1725 L18.0522,56.3725 L17.9242,56.4245 L17.3252,56.1715 L17.2742,56.0445 C17.2042,55.8745 17.8752,55.1105 19.2852,53.7525 L19.3552,53.5595 L19.4972,53.5015 L19.3242,53.0755 C18.7862,52.8095 18.4692,52.5595 18.3732,52.3225 C18.1072,51.6695 18.5612,50.5085 19.7342,48.8395 L20.4562,48.2155 Z" id="Fill-45" fill="#222222"></path>
                <path d="M22.7231,47.9968 C23.6441,47.8758 24.2131,48.0808 24.4281,48.6108 L24.1841,49.1888 C23.9951,49.2668 23.8251,49.1208 23.6751,48.7518 L23.2061,48.7768 C22.2611,49.6248 21.9321,50.4028 22.2211,51.1118 L22.2791,51.2548 L23.2171,51.2028 C24.4581,50.2678 25.0211,49.6598 24.9051,49.3768 L25.1051,49.4608 L26.2971,47.9988 L26.4241,47.9458 L26.8641,48.5788 C26.5691,49.4818 26.4761,50.0648 26.5841,50.3298 L27.0091,50.1568 L28.0091,49.4028 L28.1371,49.3508 C28.2911,49.7298 27.7951,50.3658 26.6491,51.2628 C26.1591,51.2528 25.8531,51.1628 25.7291,50.9928 L25.6191,50.7228 L25.5871,50.2388 L25.4451,50.2968 L23.6421,51.8418 L23.5851,51.6998 L23.5001,51.8988 L23.3731,51.9518 C22.2561,52.4058 21.5101,52.1698 21.1321,51.2418 C21.6441,49.3028 22.1741,48.2208 22.7231,47.9968" id="Fill-47" fill="#222222"></path>
                <path d="M28.1774,48.821 C28.3814,48.319 28.6404,48.022 28.9544,47.927 L29.2104,47.823 L29.2624,47.95 L30.6104,46.426 L31.0514,46.412 L31.1024,46.539 C31.4534,47.4 31.2594,48.279 30.5214,49.175 L30.3374,49.861 L30.4794,49.803 L34.8544,45.758 L34.8014,45.63 L34.9824,45.706 L35.1094,45.654 C36.4274,44.313 37.2804,43.562 37.6684,43.405 L37.8484,43.481 L37.9754,43.429 L38.9074,42.753 L39.5224,42.8 C39.6994,43.235 39.4804,43.93 38.8664,44.886 L37.5514,45.719 L37.1014,45.753 C36.9784,45.45 37.0304,45.076 37.2564,44.631 L37.0774,44.555 C35.6804,45.621 34.7594,46.447 34.3154,47.036 L34.2634,46.907 L30.4174,50.424 L30.3424,50.604 C30.2634,50.845 30.0874,51.021 29.8124,51.134 C28.2784,52.783 26.6184,55.112 24.8324,58.122 L23.1354,60.617 L22.7094,60.342 L22.6514,60.2 C23.1554,58.892 24.1094,57.402 25.5124,55.728 L29.8404,49.005 L30.2514,47.779 L30.1234,47.831 L29.2604,48.678 L28.4474,49.77 C28.0344,49.541 27.9444,49.224 28.1774,48.821" id="Fill-49" fill="#222222"></path>
                <path d="M38.292,43.7829 C38.496,43.2809 38.755,42.9829 39.07,42.8879 L39.325,42.7849 L39.376,42.9119 L40.725,41.3879 L41.166,41.3739 L41.217,41.5009 C41.568,42.3619 41.374,43.2409 40.636,44.1369 L40.452,44.8229 L40.594,44.7649 L44.969,40.7199 L44.916,40.5919 L45.097,40.6679 L45.224,40.6159 C46.542,39.2749 47.395,38.5239 47.782,38.3659 L47.963,38.4429 L48.09,38.3909 L49.022,37.7149 L49.637,37.7619 C49.814,38.1969 49.595,38.8919 48.981,39.8479 L47.666,40.6809 L47.216,40.7149 C47.093,40.4119 47.145,40.0379 47.372,39.5929 L47.192,39.5169 C45.795,40.5819 44.874,41.4089 44.43,41.9979 L44.378,41.8689 L40.532,45.3859 L40.457,45.5659 C40.378,45.8069 40.202,45.9829 39.927,46.0949 C38.393,47.7449 36.733,50.0739 34.947,53.0839 L33.25,55.5789 L32.824,55.3039 L32.766,55.1619 C33.27,53.8539 34.224,52.3629 35.627,50.6889 L39.955,43.9669 L40.366,42.7409 L40.238,42.7929 L39.375,43.6399 L38.562,44.7309 C38.149,44.5029 38.059,44.1859 38.292,43.7829" id="Fill-51" fill="#222222"></path>
                <path d="M52.9097,34.2683 L53.7727,34.4793 C54.1307,35.3593 53.4437,36.3373 51.7107,37.4173 L51.9127,37.9153 L53.1317,37.6183 L55.7567,36.5493 L55.8577,36.3103 L56.0837,36.4163 L57.5907,35.4073 L57.6607,35.5773 L57.7617,35.3373 L58.4137,35.0723 L58.6157,35.5673 L58.2897,35.7003 L55.3317,37.8633 L55.2627,37.6933 L55.1757,37.9263 L53.2037,38.7293 L52.3107,38.8933 L52.3797,39.0643 C51.8627,39.1203 51.2617,39.0113 50.5777,38.7393 L49.5877,39.8033 L48.8897,39.5093 L48.6867,39.0113 L49.3027,38.6143 L50.2947,37.2333 C51.5747,35.4443 52.4457,34.4563 52.9097,34.2683" id="Fill-53" fill="#222222"></path>
                <path d="M59.3415,31.6003 C60.2625,31.4793 60.8315,31.6843 61.0465,32.2133 L60.8025,32.7913 C60.6135,32.8693 60.4435,32.7243 60.2935,32.3553 L59.8245,32.3803 C58.8795,33.2283 58.5505,34.0053 58.8395,34.7153 L58.8975,34.8573 L59.8355,34.8063 C61.0765,33.8713 61.6395,33.2633 61.5235,32.9793 L61.7235,33.0633 L62.9145,31.6013 L63.0425,31.5493 L63.4825,32.1823 C63.1875,33.0843 63.0945,33.6673 63.2015,33.9323 L63.6275,33.7593 L64.6275,33.0063 L64.7555,32.9543 C64.9095,33.3323 64.4135,33.9693 63.2675,34.8663 C62.7775,34.8553 62.4715,34.7663 62.3465,34.5963 L62.2365,34.3263 L62.2055,33.8413 L62.0635,33.9003 L60.2605,35.4453 L60.2035,35.3033 L60.1195,35.5023 L59.9915,35.5543 C58.8745,36.0083 58.1285,35.7723 57.7505,34.8453 C58.2625,32.9063 58.7925,31.8233 59.3415,31.6003" id="Fill-55" fill="#222222"></path>
                <path d="M63.6873,33.5642 C63.9963,33.2402 64.4143,32.3972 64.9413,31.0362 C65.1683,30.9432 65.2293,30.6312 65.1233,30.1012 L65.3793,29.9982 L65.3323,29.8832 C65.9363,30.0132 66.4943,29.9732 67.0053,29.7652 L68.4343,29.0512 L68.6983,29.3752 C68.7983,29.6212 68.6873,29.8092 68.3663,29.9402 L67.6723,31.0822 L67.7703,31.3222 L68.6883,31.0982 L69.2983,30.8502 L69.9983,30.4162 L69.5023,30.6182 L69.5543,30.7472 L69.6153,30.5722 L69.7433,30.5192 L70.2923,30.4462 L70.9543,29.9602 L71.0533,30.2032 L70.9093,30.5412 L70.8633,30.4272 C70.1933,31.0312 69.5093,31.4752 68.8083,31.7602 L68.3263,31.9572 L68.1473,31.8812 L68.0703,32.0602 L67.9573,32.1062 C67.4233,32.2032 67.0273,31.9332 66.7693,31.2992 L66.7173,31.1722 L66.8083,30.7062 L66.1523,30.8402 C65.4633,32.4552 64.6693,33.4442 63.7703,33.8102 L63.6873,33.5642 Z" id="Fill-57" fill="#222222"></path>
                <path d="M77.1013,25.8708 C78.0223,25.7498 78.5913,25.9548 78.8063,26.4848 L78.5623,27.0628 C78.3733,27.1408 78.2033,26.9948 78.0533,26.6258 L77.5843,26.6508 C76.6393,27.4988 76.3103,28.2768 76.5993,28.9858 L76.6573,29.1288 L77.5953,29.0768 C78.8363,28.1418 79.3993,27.5338 79.2833,27.2498 L79.4833,27.3348 L80.6743,25.8728 L80.8023,25.8198 L81.2423,26.4528 C80.9473,27.3558 80.8543,27.9388 80.9613,28.2038 L81.3873,28.0308 L82.3873,27.2768 L82.5153,27.2248 C82.6693,27.6028 82.1733,28.2398 81.0273,29.1368 C80.5373,29.1268 80.2313,29.0368 80.1073,28.8668 L79.9963,28.5968 L79.9653,28.1128 L79.8233,28.1708 L78.0203,29.7158 L77.9633,29.5738 L77.8783,29.7728 L77.7513,29.8258 C76.6343,30.2798 75.8883,30.0438 75.5103,29.1158 C76.0223,27.1768 76.5523,26.0948 77.1013,25.8708" id="Fill-59" fill="#222222"></path>
                <path d="M83.2684,25.9265 L83.7124,25.5955 L84.6224,24.4975 L84.6984,24.3195 L84.8924,24.3885 L85.2754,24.2325 L85.7484,23.8915 L86.3634,23.9395 L86.2224,25.0555 L86.2734,25.1825 C87.5574,23.7555 88.6524,22.8585 89.5614,22.4885 L89.6884,22.4365 L90.0484,22.5875 L89.7754,24.5185 L89.9554,24.5955 L90.9364,23.9975 L91.5414,23.8995 L90.9114,24.7505 L90.2094,25.2195 C89.5924,25.4375 89.1194,25.3875 88.7914,25.0695 L88.9324,23.9525 L88.8804,23.8235 L85.6274,26.9675 C85.0724,27.0935 84.7584,27.0675 84.6854,26.8875 L84.4254,26.2495 C84.7284,26.1265 84.8574,25.8205 84.8124,25.3305 L83.7614,26.4875 L82.6804,27.4885 L82.1844,27.4085 C82.7204,26.6945 83.0824,26.2005 83.2684,25.9265" id="Fill-61" fill="#222222"></path>
                <path d="M102.5882,15.7868 L102.8012,15.7008 C104.3552,13.8548 105.3382,12.3678 105.7502,11.2408 L105.5372,11.3278 C104.0152,12.8178 103.0332,14.3058 102.5882,15.7868 M105.6702,9.7848 L106.2662,9.5418 L106.8862,9.8048 C106.3462,11.9208 105.3712,13.7508 103.9592,15.2958 C103.4402,16.0798 102.6572,16.9728 101.6082,17.9728 L101.1992,19.5278 L101.3152,19.8118 L101.8922,20.7838 L101.3602,21.1828 C100.7412,20.7728 100.3662,20.4078 100.2352,20.0858 L100.1972,19.5878 L100.0552,19.6448 L97.1872,22.3518 L96.9872,22.2668 L96.8452,22.3248 L94.9182,23.9698 L94.7182,23.8858 L94.5762,23.9428 L93.8962,24.3858 C92.4452,24.7768 91.5352,24.5188 91.1662,23.6108 C90.8072,22.3788 91.1062,21.5658 92.0612,21.1778 L92.2172,21.1138 C92.8322,20.8638 93.6782,20.9778 94.7552,21.4558 L94.7712,22.3088 L94.4732,22.4308 L92.8732,21.8728 L92.9372,22.0298 L92.4192,22.0578 C92.0932,22.3668 91.9592,22.5938 92.0172,22.7348 L92.3172,23.4738 L94.2762,23.2058 C95.6262,22.5128 97.7922,20.6538 100.7752,17.6328 C102.3262,14.0998 103.9582,11.4848 105.6702,9.7848" id="Fill-63" fill="#222222"></path>
                <path d="M48.9049,59.1618 L49.0329,59.1098 L49.5339,59.2038 L49.4639,59.3968 L49.5679,59.6528 L50.0229,59.6338 L49.9649,59.4908 L50.1509,59.5808 L53.4569,58.2358 L53.6519,58.3068 L53.7799,58.2548 L53.7269,58.1258 L53.9069,58.2028 L54.0489,58.1448 C56.1209,57.3018 58.1509,56.7338 60.1389,56.4428 L60.6779,56.2238 L60.7819,56.4788 L60.2419,56.6988 L60.0629,56.6238 L59.9869,56.8028 L59.5899,56.9648 L58.8709,57.1088 L58.1279,57.5588 L57.7309,57.7218 L57.0119,57.8658 L57.0639,57.9918 L56.8839,57.9178 L56.7569,57.9698 L50.8719,60.2148 L50.2049,60.4858 L50.0189,60.3948 C49.0449,60.7918 48.0269,62.0848 46.9639,64.2698 C45.8959,65.7638 45.1589,66.9888 44.7549,67.9478 C44.2689,68.7848 44.0929,69.3688 44.2279,69.6998 L44.4269,69.7838 L45.8749,69.1948 C47.5299,67.5728 48.3489,66.9818 48.3279,67.4198 L48.6669,67.8448 C48.1809,68.4388 47.1109,69.3048 45.4559,70.4408 C44.3109,70.9068 43.5769,70.7428 43.2539,69.9478 C43.3359,69.0648 44.2359,67.1038 45.9549,64.0668 L47.2199,61.8498 L47.1679,61.7218 L45.9759,62.2068 L45.8859,62.3928 C45.1859,62.6778 44.7099,62.5118 44.4599,61.8968 L44.7479,61.4668 L45.7219,61.2178 L45.8499,61.1658 L46.3379,60.8198 L46.7859,60.7848 L46.8629,60.6058 L47.5809,60.4618 L48.3759,60.1388 L48.9049,59.1618 Z" id="Fill-65" fill="#222222"></path>
                <path d="M62.1482,51.4421 L62.3482,51.5261 L62.4052,51.6681 C62.5672,52.0651 62.0442,52.9331 60.8362,54.2741 C57.5112,58.4611 54.9582,61.8481 53.1772,64.4371 L52.3562,66.0791 L52.4142,66.2201 C52.6792,66.1131 54.3272,64.2401 57.3572,60.6031 C58.2062,59.8171 58.9242,59.3041 59.5102,59.0651 C59.7002,58.9891 59.8522,59.0911 59.9672,59.3761 C60.2332,60.0291 59.7672,61.3091 58.5702,63.2191 L58.5002,63.4131 L58.6742,63.8381 L59.9052,63.2061 L60.0732,62.8061 L60.3572,62.6911 C60.5462,62.6141 60.6982,62.7171 60.8142,63.0011 L60.4972,63.4431 L59.1422,64.6241 C58.7182,64.7741 58.2222,64.7611 57.6542,64.5851 C57.5662,63.8811 58.0412,62.4861 59.0772,60.3991 L59.0192,60.2571 L58.8772,60.3151 C58.0182,60.8851 56.3752,62.7561 53.9492,65.9261 C53.5312,66.5271 53.0432,66.9391 52.4852,67.1671 L51.0982,67.4181 C50.9062,66.9441 51.2112,66.2181 52.0152,65.2401 L53.2502,63.3151 L52.5472,63.7011 L52.4052,63.7581 C52.3122,64.1271 51.5192,64.9971 50.0252,66.3661 C48.6962,67.6781 47.9962,68.3161 47.9252,68.2781 L47.7132,68.9761 L47.6772,68.6441 C46.4742,69.4541 46.0952,69.5991 46.5412,69.0821 C46.9862,68.5641 50.6792,64.6111 57.6192,57.2211 C60.1652,53.5611 61.6752,51.6341 62.1482,51.4421" id="Fill-67" fill="#222222"></path>
                <path d="M61.7917,58.8806 C62.7127,58.7596 63.2817,58.9646 63.4977,59.4946 L63.2527,60.0726 C63.0637,60.1496 62.8937,60.0046 62.7437,59.6356 L62.2747,59.6606 C61.3297,60.5086 61.0007,61.2866 61.2897,61.9956 L61.3477,62.1386 L62.2857,62.0866 C63.5267,61.1516 64.0897,60.5436 63.9737,60.2596 L64.1737,60.3446 L65.3647,58.8826 L65.4927,58.8296 L65.9327,59.4626 C65.6377,60.3656 65.5447,60.9486 65.6517,61.2136 L66.0777,61.0396 L67.0777,60.2866 L67.2057,60.2346 C67.3597,60.6126 66.8637,61.2496 65.7177,62.1466 C65.2277,62.1356 64.9217,62.0466 64.7977,61.8766 L64.6877,61.6066 L64.6557,61.1226 L64.5137,61.1806 L62.7107,62.7256 L62.6537,62.5836 L62.5697,62.7826 L62.4417,62.8356 C61.3247,63.2896 60.5787,63.0536 60.2007,62.1256 C60.7127,60.1866 61.2427,59.1046 61.7917,58.8806" id="Fill-69" fill="#222222"></path>
                <path d="M71.864,49.4323 L71.992,49.3803 L72.493,49.4743 L72.423,49.6673 L72.527,49.9233 L72.982,49.9033 L72.924,49.7613 L73.11,49.8513 L76.416,48.5063 L76.611,48.5773 L76.738,48.5253 L76.686,48.3963 L76.866,48.4733 L77.008,48.4153 C79.08,47.5723 81.109,47.0043 83.097,46.7133 L83.637,46.4943 L83.741,46.7493 L83.201,46.9693 L83.022,46.8943 L82.946,47.0733 L82.549,47.2353 L81.83,47.3793 L81.087,47.8293 L80.69,47.9913 L79.971,48.1363 L80.023,48.2623 L79.843,48.1883 L79.716,48.2403 L73.83,50.4853 L73.163,50.7553 L72.978,50.6653 C72.004,51.0623 70.985,52.3543 69.923,54.5403 C68.854,56.0343 68.118,57.2593 67.714,58.2173 C67.228,59.0553 67.052,59.6383 67.186,59.9693 L67.386,60.0543 L68.834,59.4643 C70.489,57.8433 71.308,57.2513 71.287,57.6903 L71.626,58.1153 C71.14,58.7093 70.07,59.5753 68.415,60.7113 C67.27,61.1773 66.536,61.0133 66.212,60.2183 C66.294,59.3353 67.195,57.3743 68.914,54.3373 L70.179,52.1203 L70.127,51.9923 L68.934,52.4773 L68.845,52.6623 C68.145,52.9483 67.669,52.7823 67.419,52.1663 L67.707,51.7373 L68.681,51.4883 L68.809,51.4363 L69.296,51.0893 L69.745,51.0553 L69.822,50.8763 L70.54,50.7323 L71.335,50.4083 L71.864,49.4323 Z" id="Fill-71" fill="#222222"></path>
                <path d="M89.795,48.6491 L90.008,48.5621 C91.562,46.7161 92.545,45.2291 92.957,44.1021 L92.744,44.1891 C91.222,45.6791 90.24,47.1671 89.795,48.6491 M92.877,42.6461 L93.473,42.4041 L94.093,42.6661 C93.553,44.7821 92.578,46.6121 91.166,48.1571 C90.647,48.9411 89.864,49.8341 88.815,50.8341 L88.406,52.3891 L88.522,52.6731 L89.099,53.6451 L88.567,54.0451 C87.948,53.6341 87.573,53.2691 87.442,52.9471 L87.404,52.4491 L87.263,52.5061 L84.394,55.2121 L84.194,55.1281 L84.053,55.1861 L82.125,56.8321 L81.925,56.7471 L81.783,56.8041 L81.103,57.2471 C79.652,57.6381 78.742,57.3801 78.373,56.4721 C78.014,55.2401 78.313,54.4271 79.268,54.0391 L79.424,53.9751 C80.039,53.7251 80.886,53.8391 81.962,54.3171 L81.978,55.1701 L81.68,55.2921 L80.081,54.7341 L80.144,54.8911 L79.626,54.9191 C79.3,55.2281 79.166,55.4551 79.224,55.5961 L79.524,56.3351 L81.483,56.0671 C82.833,55.3741 84.999,53.5151 87.982,50.4941 C89.533,46.9621 91.165,44.3461 92.877,42.6461" id="Fill-73" fill="#222222"></path>
                <path d="M90.3067,51.3845 L90.3877,51.5835 C91.1407,50.7255 91.4757,50.1925 91.3907,49.9845 L90.9937,50.1465 L90.3067,51.3845 Z M88.4157,53.3635 L88.6997,53.2475 L88.7837,53.0475 L88.9257,52.9895 L88.9827,53.1315 C89.4497,52.8425 89.6057,52.5085 89.4517,52.1295 C89.1167,51.3065 89.6967,50.3055 91.1897,49.1245 L91.3317,49.0665 C91.6157,48.9505 91.8327,49.0765 91.9827,49.4465 C92.2327,50.0615 92.0517,50.6865 91.4387,51.3215 L91.4967,51.4625 L91.6957,51.5475 L91.7537,51.6895 C93.7107,50.3195 94.4837,49.1295 94.0717,48.1165 C93.7977,48.2295 93.6027,48.1425 93.4867,47.8595 L93.3447,47.9165 C93.3517,47.4175 93.4397,47.1065 93.6097,46.9825 L93.8937,46.8655 C94.1297,46.7705 94.4737,47.0725 94.9237,47.7705 C94.9757,48.9845 94.5877,50.1835 93.7577,51.3695 L93.8157,51.5125 L91.6687,52.7005 L90.2817,52.9495 L89.1877,54.0415 L88.4157,53.3635 Z" id="Fill-75" fill="#222222"></path>
                <path d="M99.9157,46.7429 L100.3597,46.4129 L101.2697,45.3139 L101.3457,45.1359 L101.5397,45.2049 L101.9227,45.0489 L102.3957,44.7089 L103.0107,44.7559 L102.8697,45.8719 L102.9207,45.9989 C104.2047,44.5729 105.2997,43.6749 106.2087,43.3049 L106.3357,43.2529 L106.6957,43.4039 L106.4227,45.3349 L106.6027,45.4119 L107.5837,44.8139 L108.1887,44.7159 L107.5587,45.5669 L106.8567,46.0359 C106.2397,46.2549 105.7667,46.2039 105.4387,45.8859 L105.5797,44.7689 L105.5277,44.6399 L102.2747,47.7839 C101.7197,47.9099 101.4057,47.8839 101.3327,47.7039 L101.0727,47.0659 C101.3757,46.9429 101.5047,46.6379 101.4597,46.1479 L100.4087,47.3039 L99.3277,48.3049 L98.8317,48.2249 C99.3677,47.5109 99.7297,47.0169 99.9157,46.7429" id="Fill-77" fill="#222222"></path>
                <path d="M108.9729,43.0066 L109.0539,43.2056 C109.8069,42.3476 110.1419,41.8146 110.0569,41.6066 L109.6599,41.7686 L108.9729,43.0066 Z M107.0819,44.9856 L107.3659,44.8696 L107.4499,44.6696 L107.5919,44.6116 L107.6489,44.7546 C108.1159,44.4646 108.2719,44.1306 108.1179,43.7516 C107.7829,42.9286 108.3629,41.9276 109.8559,40.7466 L109.9979,40.6896 C110.2819,40.5726 110.4989,40.6986 110.6489,41.0686 C110.8989,41.6836 110.7179,42.3086 110.1049,42.9436 L110.1629,43.0856 L110.3619,43.1696 L110.4199,43.3116 C112.3769,41.9426 113.1399,38.6946 113.5899,39.3936 C113.6419,40.6066 113.2539,41.8056 112.4239,42.9916 L112.4819,43.1346 L110.3349,44.3226 L108.9479,44.5716 L107.8539,45.6636 L107.0819,44.9856 Z" id="Fill-79" fill="#222222"></path>
                <path d="M117.788,31.6023 L117.916,31.5493 L118.417,31.6433 L118.347,31.8373 L118.451,32.0923 L118.906,32.0733 L118.848,31.9313 L119.034,32.0213 L122.34,30.6753 L122.535,30.7473 L122.662,30.6953 L122.61,30.5663 L122.79,30.6423 L122.932,30.5843 C125.004,29.7423 127.034,29.1743 129.022,28.8833 L129.561,28.6643 L129.665,28.9193 L129.125,29.1393 L128.946,29.0643 L128.87,29.2433 L128.473,29.4043 L127.754,29.5493 L127.011,29.9993 L126.614,30.1613 L125.895,30.3053 L125.947,30.4323 L125.767,30.3573 L125.64,30.4103 L119.755,32.6543 L119.087,32.9253 L118.902,32.8353 C117.928,33.2323 116.91,34.5243 115.847,36.7093 C114.779,38.2033 114.042,39.4293 113.638,40.3873 C113.152,41.2253 112.976,41.8083 113.111,42.1393 L113.31,42.2233 L114.758,41.6343 C116.413,40.0123 117.232,39.4213 117.211,39.8603 L117.55,40.2853 C117.064,40.8793 115.994,41.7453 114.339,42.8813 C113.194,43.3473 112.46,43.1823 112.137,42.3883 C112.219,41.5053 113.119,39.5443 114.838,36.5073 L116.103,34.2903 L116.051,34.1613 L114.858,34.6463 L114.769,34.8323 C114.069,35.1183 113.593,34.9523 113.343,34.3363 L113.631,33.9063 L114.605,33.6583 L114.733,33.6063 L115.22,33.2593 L115.669,33.2243 L115.746,33.0453 L116.464,32.9013 L117.259,32.5783 L117.788,31.6023 Z" id="Fill-81" fill="#222222"></path>
                <path d="M44.3895,86.8757 L44.6025,86.7887 C46.1565,84.9437 47.1395,83.4567 47.5515,82.3287 L47.3385,82.4157 C45.8165,83.9057 44.8345,85.3937 44.3895,86.8757 M47.4715,80.8727 L48.0675,80.6307 L48.6875,80.8927 C48.1475,83.0087 47.1725,84.8387 45.7605,86.3837 C45.2425,87.1687 44.4585,88.0607 43.4095,89.0607 L43.0005,90.6167 L43.1165,90.8997 L43.6935,91.8717 L43.1615,92.2717 C42.5425,91.8617 42.1675,91.4957 42.0365,91.1747 L41.9985,90.6757 L41.8575,90.7327 L38.9885,93.4397 L38.7885,93.3557 L38.6475,93.4137 L36.7195,95.0587 L36.5195,94.9747 L36.3775,95.0317 L35.6975,95.4747 C34.2465,95.8657 33.3365,95.6067 32.9675,94.6987 C32.6095,93.4667 32.9075,92.6547 33.8625,92.2667 L34.0195,92.2027 C34.6335,91.9517 35.4805,92.0667 36.5565,92.5437 L36.5725,93.3967 L36.2745,93.5187 L34.6755,92.9607 L34.7385,93.1177 L34.2205,93.1467 C33.8945,93.4547 33.7605,93.6817 33.8185,93.8237 L34.1185,94.5617 L36.0775,94.2937 C37.4275,93.6017 39.5935,91.7427 42.5765,88.7207 C44.1275,85.1887 45.7595,82.5727 47.4715,80.8727" id="Fill-83" fill="#222222"></path>
                <path d="M48.7432,83.532 L48.8852,83.473 L49.6642,83.803 L49.8372,84.228 L49.6692,84.628 L49.5272,84.686 L48.8582,84.627 C47.8102,85.793 47.3852,86.616 47.5812,87.098 C48.0202,87.582 48.4622,87.732 48.9072,87.552 L49.1892,88.246 C48.9052,88.362 48.8202,88.557 48.9312,88.832 L49.1312,88.916 L49.9002,88.123 L50.1002,88.207 C49.9512,87.815 49.9512,87.612 50.0992,87.595 C50.8932,86.865 51.3032,86.868 51.3282,87.607 L50.6512,88.099 L49.9262,88.593 L46.4812,91.631 L46.4232,91.489 L46.3392,91.688 L46.2112,91.741 L45.6122,91.488 L45.5612,91.361 C45.4912,91.191 46.1622,90.427 47.5722,89.069 L47.6422,88.876 L47.7842,88.818 L47.6112,88.392 C47.0732,88.126 46.7562,87.876 46.6602,87.639 C46.3942,86.986 46.8482,85.825 48.0212,84.156 L48.7432,83.532 Z" id="Fill-85" fill="#222222"></path>
                <path d="M51.1492,83.57 C52.0702,83.449 52.6392,83.654 52.8542,84.184 L52.6102,84.762 C52.4212,84.84 52.2522,84.694 52.1012,84.325 L51.6322,84.35 C50.6872,85.198 50.3582,85.976 50.6472,86.685 L50.7052,86.828 L51.6432,86.777 C52.8842,85.841 53.4472,85.233 53.3312,84.949 L53.5312,85.034 L54.7232,83.572 L54.8502,83.52 L55.2902,84.153 C54.9952,85.055 54.9022,85.638 55.0102,85.903 L55.4352,85.73 L56.4352,84.976 L56.5632,84.924 C56.7172,85.303 56.2212,85.939 55.0752,86.836 C54.5852,86.826 54.2792,86.736 54.1552,86.566 L54.0452,86.296 L54.0132,85.812 L53.8712,85.87 L52.0682,87.415 L52.0112,87.273 L51.9272,87.473 L51.7992,87.525 C50.6822,87.979 49.9362,87.743 49.5582,86.815 C50.0702,84.876 50.6002,83.794 51.1492,83.57" id="Fill-87" fill="#222222"></path>
                <path d="M56.6045,84.3943 C56.8085,83.8923 57.0675,83.5943 57.3815,83.4993 L57.6375,83.3963 L57.6885,83.5223 L59.0375,81.9983 L59.4785,81.9853 L59.5295,82.1123 C59.8805,82.9733 59.6865,83.8523 58.9485,84.7483 L58.7645,85.4343 L58.9065,85.3753 L63.2815,81.3313 L63.2285,81.2023 L63.4095,81.2793 L63.5365,81.2273 C64.8545,79.8853 65.7075,79.1353 66.0945,78.9773 L66.2755,79.0543 L66.4025,79.0023 L67.3345,78.3253 L67.9495,78.3733 C68.1265,78.8083 67.9075,79.5033 67.2935,80.4593 L65.9785,81.2913 L65.5285,81.3253 C65.4055,81.0223 65.4575,80.6483 65.6835,80.2033 L65.5045,80.1283 C64.1075,81.1933 63.1865,82.0203 62.7425,82.6093 L62.6905,82.4803 L58.8445,85.9973 L58.7695,86.1773 C58.6905,86.4183 58.5145,86.5943 58.2395,86.7063 C56.7055,88.3563 55.0455,90.6853 53.2595,93.6953 L51.5625,96.1893 L51.1365,95.9153 L51.0785,95.7733 C51.5825,94.4653 52.5365,92.9743 53.9395,91.3003 L58.2675,84.5783 L58.6785,83.3523 L58.5505,83.4043 L57.6875,84.2503 L56.8745,85.3423 C56.4615,85.1143 56.3715,84.7973 56.6045,84.3943" id="Fill-89" fill="#222222"></path>
                <path d="M67.0705,79.4929 C67.2745,78.9909 67.5335,78.6929 67.8475,78.5979 L68.1035,78.4949 L68.1545,78.6209 L69.5035,77.0969 L69.9445,77.0839 L69.9955,77.2109 C70.3465,78.0719 70.1525,78.9509 69.4145,79.8469 L69.2305,80.5329 L69.3725,80.4739 L73.7475,76.4299 L73.6945,76.3019 L73.8755,76.3779 L74.0025,76.3259 C75.3205,74.9839 76.1735,74.2339 76.5605,74.0759 L76.7415,74.1529 L76.8685,74.1009 L77.8005,73.4239 L78.4155,73.4719 C78.5925,73.9069 78.3735,74.6019 77.7595,75.5579 L76.4445,76.3909 L75.9945,76.4239 C75.8715,76.1209 75.9235,75.7469 76.1505,75.3029 L75.9705,75.2269 C74.5735,76.2919 73.6525,77.1189 73.2085,77.7079 L73.1565,77.5789 L69.3105,81.0959 L69.2355,81.2759 C69.1565,81.5169 68.9805,81.6929 68.7055,81.8049 C67.1715,83.4549 65.5115,85.7839 63.7255,88.7939 L62.0285,91.2879 L61.6025,91.0139 L61.5445,90.8719 C62.0485,89.5639 63.0025,88.0729 64.4055,86.3989 L68.7335,79.6769 L69.1445,78.4499 L69.0165,78.5029 L68.1535,79.3489 L67.3405,80.4409 C66.9275,80.2129 66.8375,79.8959 67.0705,79.4929" id="Fill-91" fill="#222222"></path>
                <path d="M81.7088,70.2351 L82.5718,70.4461 C82.9298,71.3261 82.2428,72.3041 80.5098,73.3841 L80.7118,73.8821 L81.9308,73.5851 L84.5558,72.5161 L84.6568,72.2771 L84.8828,72.3831 L86.3898,71.3741 L86.4598,71.5441 L86.5608,71.3041 L87.2128,71.0391 L87.4148,71.5341 L87.0888,71.6671 L84.1308,73.8301 L84.0618,73.6601 L83.9748,73.8931 L82.0028,74.6961 L81.1098,74.8601 L81.1788,75.0311 C80.6618,75.0871 80.0608,74.9781 79.3758,74.7061 L78.3868,75.7701 L77.6888,75.4761 L77.4858,74.9791 L78.1018,74.5811 L79.0938,73.2001 C80.3738,71.4111 81.2448,70.4231 81.7088,70.2351" id="Fill-93" fill="#222222"></path>
                <path d="M88.1406,67.5671 C89.0616,67.4461 89.6306,67.6511 89.8456,68.1801 L89.6016,68.7581 C89.4126,68.8361 89.2426,68.6911 89.0926,68.3221 L88.6236,68.3471 C87.6786,69.1951 87.3496,69.9721 87.6386,70.6821 L87.6966,70.8241 L88.6346,70.7731 C89.8756,69.8381 90.4386,69.2301 90.3226,68.9461 L90.5226,69.0301 L91.7146,67.5681 L91.8416,67.5161 L92.2816,68.1491 C91.9866,69.0511 91.8936,69.6341 92.0016,69.8991 L92.4266,69.7261 L93.4266,68.9731 L93.5546,68.9211 C93.7086,69.2991 93.2126,69.9361 92.0666,70.8331 C91.5766,70.8221 91.2706,70.7331 91.1466,70.5631 L91.0366,70.2931 L91.0046,69.8081 L90.8626,69.8671 L89.0596,71.4121 L89.0026,71.2701 L88.9186,71.4691 L88.7906,71.5211 C87.6736,71.9751 86.9276,71.7391 86.5496,70.8121 C87.0616,68.8731 87.5916,67.7901 88.1406,67.5671" id="Fill-95" fill="#222222"></path>
                <path d="M92.4854,69.531 C92.7944,69.207 93.2124,68.364 93.7394,67.003 C93.9664,66.911 94.0274,66.599 93.9214,66.068 L94.1774,65.965 L94.1304,65.851 C94.7344,65.98 95.2924,65.941 95.8034,65.733 L97.2324,65.019 L97.4964,65.342 C97.5964,65.588 97.4854,65.776 97.1644,65.907 L96.4714,67.05 L96.5684,67.29 L97.4864,67.066 L98.0974,66.818 L98.7964,66.383 L98.3004,66.585 L98.3524,66.714 L98.4134,66.539 L98.5414,66.487 L99.0904,66.414 L99.7524,65.927 L99.8514,66.17 L99.7084,66.509 L99.6614,66.395 C98.9924,66.998 98.3074,67.442 97.6074,67.727 L97.1244,67.924 L96.9454,67.848 L96.8694,68.027 L96.7554,68.074 C96.2214,68.17 95.8254,67.901 95.5674,67.267 L95.5154,67.14 L95.6064,66.674 L94.9504,66.807 C94.2614,68.423 93.4674,69.412 92.5694,69.777 L92.4854,69.531 Z" id="Fill-97" fill="#222222"></path>
                <path d="M103.8788,63.1101 L104.4698,62.5711 L105.0388,62.5871 L105.4518,63.0321 C104.9628,63.4841 104.8558,63.8591 105.1308,64.1551 L103.9928,64.1221 L103.8468,63.9651 L103.8788,63.1101 Z" id="Fill-99" fill="#222222"></path>
                <path d="M5.6515,73.7956 L5.7795,73.7436 L6.2805,73.8376 L6.2105,74.0306 L6.3145,74.2866 L6.7695,74.2676 L6.7115,74.1246 L6.8975,74.2146 L10.2035,72.8696 L10.3985,72.9406 L10.5255,72.8886 L10.4735,72.7596 L10.6535,72.8366 L10.7955,72.7786 C12.8675,71.9356 14.8975,71.3676 16.8845,71.0766 L17.4245,70.8576 L17.5285,71.1126 L16.9885,71.3326 L16.8095,71.2576 L16.7335,71.4366 L16.3365,71.5986 L15.6175,71.7426 L14.8745,72.1926 L14.4775,72.3556 L13.7585,72.4996 L13.8105,72.6266 L13.6305,72.5516 L13.5035,72.6036 L7.6185,74.8486 L6.9515,75.1196 L6.7655,75.0286 C5.7915,75.4266 4.7725,76.7186 3.7105,78.9036 C2.6425,80.3976 1.9055,81.6226 1.5015,82.5816 C1.0155,83.4186 0.8395,84.0026 0.9745,84.3336 L1.1735,84.4176 L2.6215,83.8286 C4.2765,82.2066 5.0955,81.6156 5.0745,82.0536 L5.4135,82.4786 C4.9275,83.0726 3.8575,83.9396 2.2025,85.0746 C1.0575,85.5406 0.3235,85.3766 0.0005,84.5816 C0.0825,83.6986 0.9825,81.7386 2.7015,78.7006 L3.9665,76.4836 L3.9145,76.3556 L2.7215,76.8406 L2.6325,77.0266 C1.9325,77.3116 1.4565,77.1456 1.2065,76.5306 L1.4945,76.1006 L2.4685,75.8516 L2.5965,75.7996 L3.0835,75.4536 L3.5335,75.4186 L3.6095,75.2396 L4.3275,75.0956 L5.1225,74.7726 L5.6515,73.7956 Z" id="Fill-101" fill="#222222"></path>
                <path d="M18.8938,66.0759 L19.0938,66.1599 L19.1508,66.3029 C19.3128,66.6999 18.7898,67.5679 17.5818,68.9079 C14.2568,73.0959 11.7038,76.4829 9.9228,79.0709 L9.1028,80.7129 L9.1598,80.8539 C9.4248,80.7469 11.0728,78.8749 14.1028,75.2369 C14.9518,74.4509 15.6698,73.9379 16.2558,73.6999 C16.4448,73.6229 16.5978,73.7259 16.7128,74.0109 C16.9788,74.6629 16.5128,75.9439 15.3158,77.8529 L15.2458,78.0479 L15.4198,78.4729 L16.6508,77.8399 L16.8188,77.4399 L17.1028,77.3249 C17.2918,77.2479 17.4438,77.3509 17.5598,77.6359 L17.2428,78.0769 L15.8878,79.2579 C15.4638,79.4079 14.9678,79.3949 14.3998,79.2189 C14.3118,78.5149 14.7868,77.1209 15.8228,75.0339 L15.7648,74.8919 L15.6238,74.9499 C14.7638,75.5199 13.1208,77.3899 10.6948,80.5609 C10.2768,81.1609 9.7888,81.5739 9.2308,81.8009 L7.8438,82.0519 C7.6518,81.5789 7.9568,80.8519 8.7608,79.8749 L9.9958,77.9499 L9.2928,78.3349 L9.1508,78.3919 C9.0578,78.7619 8.2648,79.6309 6.7708,80.9999 C5.4418,82.3119 4.7418,82.9499 4.6708,82.9129 L4.4588,83.6099 L4.4228,83.2779 C3.2198,84.0879 2.8408,84.2329 3.2868,83.7159 C3.7318,83.1979 7.4248,79.2449 14.3648,71.8559 C16.9108,68.1949 18.4208,66.2679 18.8938,66.0759" id="Fill-103" fill="#222222"></path>
                <path d="M19.8463,71.0808 L20.0173,71.1768 L20.1713,71.1468 L20.2743,70.9548 L20.4663,71.0598 L20.4963,71.2138 C20.2063,71.2878 20.0823,71.7828 20.1263,72.7028 L19.6973,72.8288 L19.1513,72.5038 L19.0703,72.2238 C19.0243,72.0558 19.2823,71.6748 19.8463,71.0808 M18.7033,74.2078 L19.1383,74.0978 L19.3243,74.1868 L19.4773,74.1578 L18.0353,77.9718 L17.8813,78.0008 L17.5183,77.7998 L17.4753,77.6518 C17.3093,76.9478 17.7193,75.7998 18.7033,74.2078" id="Fill-105" fill="#222222"></path>
                <path d="M19.2813,75.7605 L19.7253,75.4295 L20.6353,74.3315 L20.7113,74.1535 L20.9053,74.2215 L21.2883,74.0665 L21.7613,73.7255 L22.3763,73.7735 L22.2353,74.8895 L22.2863,75.0155 C23.5703,73.5895 24.6653,72.6915 25.5743,72.3225 L25.7013,72.2705 L26.0613,72.4215 L25.7883,74.3525 L25.9683,74.4285 L26.9493,73.8305 L27.5543,73.7335 L26.9243,74.5845 L26.2223,75.0535 C25.6053,75.2715 25.1323,75.2205 24.8043,74.9025 L24.9453,73.7855 L24.8933,73.6575 L21.6403,76.8005 C21.0853,76.9275 20.7713,76.9015 20.6983,76.7215 L20.4383,76.0835 C20.7413,75.9595 20.8703,75.6545 20.8253,75.1645 L19.7743,76.3205 L18.6933,77.3225 L18.1973,77.2415 C18.7333,76.5285 19.0953,76.0345 19.2813,75.7605" id="Fill-107" fill="#222222"></path>
                <path d="M9.3558,87.0417 L9.4838,86.9897 L9.4138,87.1837 L9.4718,87.3247 C10.2838,89.3217 11.5988,89.9507 13.4148,89.2117 L13.6848,89.1027 C15.0088,88.5627 16.4918,87.6407 18.1318,86.3327 L18.1898,86.4757 C22.3668,82.9997 24.7608,80.8067 25.3718,79.8957 C17.9438,80.8017 13.1598,81.6887 11.0218,82.5597 C9.5818,83.7077 9.0038,84.6327 9.2888,85.3327 C9.0808,85.4177 9.1028,85.9857 9.3558,87.0417 M15.4118,80.4597 C22.1038,79.6447 25.8048,79.0917 26.5148,78.8027 C27.3468,78.4637 29.0578,76.8147 31.6468,73.8537 L31.4468,73.7697 L31.3948,73.6417 C31.7638,73.4907 31.9098,73.3207 31.8328,73.1317 L30.7398,73.5767 C28.5678,74.2287 27.2818,74.0637 26.8818,73.0797 C26.6238,72.4457 26.8568,71.7167 27.5798,70.8927 L27.7798,70.9767 L27.8498,70.7827 L27.9068,70.9247 L27.9918,70.7257 C28.4458,70.5407 29.2188,70.4897 30.3118,70.5747 L30.4798,70.9867 C30.5528,71.1667 30.4518,71.3117 30.1778,71.4237 L28.9498,71.1287 C28.1268,71.4637 27.6938,71.9597 27.6528,72.6157 L27.7628,72.8867 C27.9088,73.2457 28.6118,73.2797 29.8718,72.9877 L29.8138,72.8467 L31.0018,72.6767 L31.0918,72.4917 L32.5968,71.8797 L33.1748,72.1227 C33.4988,72.9177 31.8838,74.9527 28.3318,78.2287 L28.3838,78.3567 L31.0068,77.7697 L31.0908,77.5687 L32.8378,77.1887 L32.9218,76.9887 L33.0638,76.9317 L33.8028,76.7967 L33.8728,76.6027 L34.0148,76.5447 L34.4838,76.5197 L34.4268,76.3767 L34.6118,76.4677 L35.3078,76.1847 L35.3768,75.9897 L35.8468,75.9647 L35.8988,76.0937 L35.6298,76.2027 L35.6808,76.3297 L35.4878,76.2607 L35.3598,76.3127 L34.2348,77.0837 L34.1768,76.9417 L34.0928,77.1417 L33.6948,77.3037 L33.4958,77.2197 L33.4108,77.4187 L32.8718,77.6387 C31.5098,78.1927 30.3808,78.5487 29.4848,78.7037 L29.5358,78.8297 L29.3428,78.7617 L29.2148,78.8127 L29.1248,78.9977 L26.7078,79.6837 L24.7748,81.5617 L24.7238,81.4347 C20.2848,85.5667 17.5068,87.8597 16.3908,88.3137 L16.4488,88.4557 L15.9798,88.4817 L15.2718,89.1007 L13.9098,89.6547 C11.4498,90.6557 9.8118,90.1527 8.9958,88.1467 C8.0828,85.9047 8.4388,83.9077 10.0638,82.1547 L11.0988,81.5677 L11.2988,81.6527 L11.5678,81.5427 L11.9218,81.2327 L14.2088,80.6337 C14.1158,80.4067 14.5178,80.3497 15.4118,80.4597" id="Fill-109" fill="#222222"></path>
                <path d="M35.9021,64.3493 L36.0441,64.2913 L36.8231,64.6203 L36.9961,65.0463 L36.8281,65.4463 L36.6861,65.5033 L36.0171,65.4453 C34.9691,66.6113 34.5441,67.4343 34.7401,67.9163 C35.1791,68.4003 35.6211,68.5503 36.0661,68.3703 L36.3481,69.0643 C36.0641,69.1793 35.9791,69.3753 36.0901,69.6503 L36.2901,69.7343 L37.0591,68.9413 L37.2591,69.0253 C37.1101,68.6333 37.1101,68.4303 37.2581,68.4133 C38.0521,67.6833 38.4621,67.6863 38.4871,68.4253 L37.8101,68.9173 L37.0851,69.4113 L33.6401,72.4493 L33.5821,72.3073 L33.4981,72.5063 L33.3701,72.5583 L32.7711,72.3063 L32.7201,72.1793 C32.6501,72.0093 33.3211,71.2453 34.7311,69.8873 L34.8011,69.6943 L34.9431,69.6363 L34.7701,69.2103 C34.2321,68.9443 33.9151,68.6943 33.8191,68.4573 C33.5531,67.8043 34.0071,66.6433 35.1801,64.9743 L35.9021,64.3493 Z" id="Fill-111" fill="#222222"></path>
            </g>
        </g>
    </g>
</svg>