<?xml version="1.0" encoding="utf-8"?>
<!-- Generator: Adobe Illustrator 21.0.0, SVG Export Plug-In . SVG Version: 6.00 Build 0)  -->
<svg version="1.1" id="Layer_1" xmlns="http://www.w3.org/2000/svg" xmlns:xlink="http://www.w3.org/1999/xlink" x="0px" y="0px"
	 viewBox="0 0 54 38" style="enable-background:new 0 0 54 38;" xml:space="preserve">
<style type="text/css">
	.st0{filter:url(#Adobe_OpacityMaskFilter);}
	.st1{fill:#FFFFFF;}
	.st2{mask:url(#mask-2);fill:#FF6699;}
	.st3{fill:#FF6699;}
</style>
<title>handwrite_work</title>
<desc>Created with Sketch.</desc>
<g id="Symbols">
	<g id="handwrite_work">
		<g id="Page-1" transform="translate(0.500000, 2.000000)">
			<g id="Group-3" transform="translate(0.000000, 0.406200)">
				<g id="Clip-2">
				</g>
				<defs>
					<filter id="Adobe_OpacityMaskFilter" filterUnits="userSpaceOnUse" x="0" y="0.6" width="51.9" height="31.4">
						<feColorMatrix  type="matrix" values="1 0 0 0 0  0 1 0 0 0  0 0 1 0 0  0 0 0 1 0"/>
					</filter>
				</defs>
				<mask maskUnits="userSpaceOnUse" x="0" y="0.6" width="51.9" height="31.4" id="mask-2">
					<g class="st0">
						<polygon id="path-1" class="st1" points="0,0.6 51.9,0.6 51.9,32 0,32 						"/>
					</g>
				</mask>
				<path id="Fill-1" class="st2" d="M50.9,0.6h0.4l0.7,0.7c-3.6,0.8-8.9,4.2-16.1,10.2C28.2,18.1,21.7,24,16.4,29.3
					c-1.7,1.6-3.1,2.5-4.4,2.7c-2.3-0.7-3.4-3.8-3.4-9.2C6,26.6,4,28.6,2.7,28.6c-1.2,0-2-1.6-2.4-4.8h0.4l-0.4-0.4v-0.3l0.4-3.4
					H0.3l0.4-1L0,12.5l0.3-0.4h1c0.7,0.1,1,1,1,2.7v1.4l-0.3,8.2l0.7,2.1h0.3c0.8,0,2.4-2.2,4.8-6.5h1.4c0.6,0,1.3,2.8,2.1,8.5l1,1
					c1.8-0.7,6.9-5.2,15.4-13.7C38.6,6.6,44.8,2,46.4,2C48.4,1.1,49.9,0.6,50.9,0.6"/>
			</g>
			<path id="Fill-4" class="st3" d="M23.9,26.7v0.3c1.3-0.6,2-1.1,2-1.4h-0.5L23.9,26.7z M20.7,28.1h0.4l0.2-0.2h0.2v0.2
				c0.7-0.1,1-0.4,1-1c0-1.1,1.2-2,3.5-2.7h0.2c0.4,0,0.6,0.3,0.6,0.8c0,0.8-0.5,1.5-1.5,2v0.2l0.2,0.2v0.2c3-0.7,4.5-1.7,4.5-3.1
				c-0.4,0-0.6-0.2-0.6-0.6h-0.2c0.2-0.6,0.5-0.9,0.8-1h0.4c0.3,0,0.6,0.5,0.8,1.6c-0.5,1.5-1.6,2.7-3.1,3.7v0.2l-3.1,0.4l-1.8-0.4
				l-1.8,0.8L20.7,28.1z"/>
			<path id="Fill-6" class="st3" d="M27,28.6c0.5-0.2,1.4-1,2.7-2.4c0.3,0,0.5-0.3,0.7-1h0.4V25c0.7,0.4,1.3,0.7,2,0.7l2-0.2
				l0.2,0.5c0,0.3-0.2,0.5-0.7,0.5l-1.4,1v0.3l1.2,0.2h0.8l1-0.2h-0.7v0.2l0.2-0.2h0.2l0.7,0.2l1-0.3v0.3L37,28.5v-0.2
				c-1.1,0.4-2.1,0.6-3.1,0.6h-0.7l-0.2-0.2l-0.2,0.2h-0.2c-0.7-0.1-1-0.6-1-1.5v-0.2l0.3-0.5l-0.8-0.2c-1.6,1.6-3,2.4-4.2,2.4
				L27,28.6z"/>
			<path id="Fill-8" class="st3" d="M42.3,21.5h0.6v0.6c-1.4,1.7-3,3-4.7,3.8v0.3l0.2-0.2h0.3c0.5,0.5,1.2,0.5,2.2-0.1
				c0.9,0.4,2.4-0.1,4.6-1.3v-0.2h0.5l0.3,0.3c-2.6,1.6-4.6,2.4-6,2.4l1.1,0.3c1.9,1.2,3.1,2,3.5,2.5l0.2,0.2v0.2l-0.5,0.3
				c-1.7-1-3.4-1.8-5.2-2.5L37.8,27h-0.3c0,0.2-0.8,0.8-2.5,1.6v-0.2l-0.2,0.2h-0.3c0-0.3-0.1-0.5-0.3-0.5c0.1-0.4,1.6-1.5,4.4-3.3
				L42.3,21.5z"/>
			<path id="Fill-10" class="st3" d="M51.6,22.4h0.2l0.8,0.8v0.6l-0.4,0.4h-0.2l-0.8-0.4c-1.8,0.9-2.7,1.6-2.7,2.3
				c0.3,0.8,0.7,1.2,1.3,1.2v1c-0.4,0-0.6,0.2-0.6,0.6l0.2,0.2l1.3-0.6l0.2,0.2c0-0.5,0.1-0.8,0.3-0.7c1.3-0.5,1.8-0.3,1.4,0.6
				l-1,0.3l-1.1,0.2L45,30.9v-0.2l-0.2,0.2h-0.2L44,30.3v-0.2c0-0.2,1.2-0.8,3.5-1.7l0.2-0.2h0.2v-0.6c-0.5-0.6-0.8-1-0.8-1.3
				c0-0.9,1.1-2.1,3.3-3.5L51.6,22.4z"/>
		</g>
	</g>
</g>
</svg>
